<?xml version="1.0" encoding="UTF-8"?>
<svg id="Layer_1" data-name="Layer 1" xmlns="http://www.w3.org/2000/svg" viewBox="0 0 21.06 23.43">
  <defs>
    <style>
      .cls-1 {
        fill: none;
        stroke: #000;
        stroke-miterlimit: 10;
        stroke-width: .25px;
      }
    </style>
  </defs>
  <path class="cls-1" d="M16.07,14.3c.33-.33.66-.57,1-.73s.7-.24,1.07-.24c.77,0,1.43.28,1.98.83.55.55.82,1.22.82,1.98s-.27,1.42-.81,1.93c-.54.52-1.2.78-1.99.78s-1.42-.26-1.95-.79-.8-1.18-.8-1.96c0-.17.01-.32.03-.47.02-.14.06-.28.11-.4l-4.47-2.59v5.17c.76.24,1.32.58,1.68,1.03.37.44.55,1,.55,1.66,0,.78-.27,1.44-.8,1.98-.53.54-1.18.81-1.95.81s-1.44-.27-1.98-.81c-.54-.54-.81-1.2-.81-1.98,0-.63.18-1.17.55-1.62s.93-.8,1.68-1.07v-5.14l-4.46,2.56c.04.13.07.26.09.4.02.14.03.3.03.47,0,.78-.27,1.44-.8,1.98-.53.54-1.18.81-1.95.81s-1.43-.27-1.97-.82c-.54-.55-.81-1.2-.81-1.96s.27-1.42.81-1.95c.54-.53,1.2-.8,1.97-.8.39,0,.75.08,1.08.23.33.15.66.39.99.7l4.47-2.59-4.5-2.58c-.33.32-.65.55-.99.7-.33.15-.69.23-1.08.23-.78,0-1.43-.26-1.96-.79s-.79-1.18-.79-1.96.27-1.41.81-1.96,1.19-.82,1.94-.82,1.42.27,1.97.81.81,1.2.81,1.98c0,.17-.01.32-.03.47-.02.14-.05.28-.09.4l4.46,2.59v-5.18c-.76-.27-1.32-.63-1.68-1.07-.37-.44-.55-.99-.55-1.64,0-.76.27-1.41.81-1.94s1.2-.81,1.97-.81,1.41.27,1.94.81.81,1.19.81,1.94c0,.67-.18,1.24-.55,1.68-.37.45-.93.79-1.68,1.04v5.18l4.5-2.59c-.06-.17-.11-.32-.14-.47-.03-.14-.04-.28-.04-.4,0-.78.27-1.44.81-1.98.54-.54,1.2-.81,1.97-.81s1.42.27,1.96.81.81,1.19.81,1.94-.27,1.43-.81,1.97-1.19.81-1.96.81c-.4,0-.77-.08-1.11-.23-.34-.15-.66-.39-.96-.7l-4.46,2.58,4.42,2.59Z"/>
</svg>