<?xml version="1.0" encoding="UTF-8"?>
<svg id="Layer_1" data-name="Layer 1" xmlns="http://www.w3.org/2000/svg" viewBox="0 0 19.91 15.16">
  <defs>
    <style>
      .cls-1 {
        fill: #fff;
      }

      .cls-2 {
        opacity: .65;
      }
    </style>
  </defs>
  <g class="cls-2">
    <path class="cls-1" d="M17.98,0l.33.96c-.37.13-.61.32-.74.57-.13.25-.18.68-.17,1.27v.54c.04,1.19-.29,2.09-.97,2.71.79-.11,1.48-.01,2.07.3.6.31,1,.78,1.22,1.42.31.89.23,1.73-.24,2.54-.47.81-1.21,1.39-2.23,1.74-1.55.54-2.98.29-4.29-.75l.53-.89c.75.4,1.42.49,2,.29.48-.17.83-.46,1.07-.9.23-.43.28-.87.13-1.3-.13-.36-.37-.63-.73-.8-.36-.17-.72-.2-1.08-.07-.65.23-1.41,1.01-2.26,2.33l-.43.67c-1.39,2.18-2.96,3.57-4.71,4.17-1.51.52-2.96.47-4.36-.16-1.39-.63-2.34-1.66-2.83-3.09-.5-1.45-.36-2.8.41-4.07.78-1.27,2.05-2.21,3.81-2.82l.32-.11.33.96c-1.02.43-1.73,1.09-2.11,1.95-.39.87-.4,1.82-.03,2.87.36,1.03,1.05,1.78,2.08,2.25,1.03.47,2.09.51,3.19.13,1.06-.37,1.89-1.02,2.49-1.95.6-.93.76-1.81.47-2.64-.14-.39-.38-.68-.73-.87-.35-.18-.71-.21-1.09-.08-.38.13-.62.33-.74.6-.12.27-.11.61.04,1.02.09.25.26.52.52.82l-.73.7c-.71-.78-1.17-1.48-1.38-2.1-.26-.76-.24-1.5.06-2.22.3-.72.81-1.2,1.5-1.44.45-.15.89-.19,1.34-.09.44.09.89.31,1.33.66.05-1.07.41-1.93,1.1-2.58.68-.66,1.84-1.27,3.49-1.84l2.01-.7ZM12.65,7.15c.89-.51,1.48-1.6,1.78-3.28l.07-.34c.13-.73.41-1.27.83-1.62-2.47.86-3.36,2.6-2.68,5.24Z"/>
  </g>
</svg>